#!OML:ASF H:\Male1\Project 1\Capture day 1\Session 1\Male1.ASF
:FULLY-SPECIFIED
:DEGREES
407
root 44.2482 13.7676 0.989929 -359.966 -9.45241 -344.921
lowerback 9.27819 -1.34263 -10.4178
upperback 5.63573 -2.63268 -6.63564
thorax 0.883753 -1.47879 -0.893331
lowerneck -5.27741 -11.1195 -8.6243
upperneck 6.45334 -16.1815 19.4874
head 5.17021 -7.46784 6.22581
rclavicle 1.51076e-014 1.59028e-014
rhumerus -72.0872 16.2226 -100.817
rradius 94.515
rwrist -37.0346
rhand -10.4897 9.65046
rfingers 7.12502
rthumb 15.5121 -19.7473
lclavicle 1.51076e-014 1.59028e-014
lhumerus -43.7273 -0.403887 72.0003
lradius 118.182
lwrist 9.46313
lhand -21.1842 -2.27337
lfingers 7.12502
lthumb 5.19649 27.6429
rfemur -48.3715 -9.90227 30.5762
rtibia 65.0767
rfoot -29.357 -0.0552703
rtoes 1.71672
lfemur -0.374127 -7.92981 -25.216
ltibia 56.1687
lfoot -16.8487 -0.339738
ltoes -22.3099
408
root 44.1461 13.8657 1.48291 -361.168 -10.737 -344.831
lowerback 9.75792 -1.22738 -10.1842
upperback 5.746 -2.53202 -6.61748
thorax 0.717342 -1.42362 -0.995837
lowerneck -5.20127 -11.2872 -8.56319
upperneck 6.36995 -16.4088 19.4578
head 5.15715 -7.58739 6.18401
rclavicle 2.3059e-014 4.65156e-014
rhumerus -72.7442 15.5768 -100.609
rradius 94.0331
rwrist -39.3779
rhand -7.04991 7.21945
rfingers 7.12502
rthumb 18.8228 -21.8898
lclavicle 2.3059e-014 4.65156e-014
lhumerus -44.7716 -2.08593 73.3034
lradius 119.771
lwrist 8.48279
lhand -20.732 -3.76474
lfingers 7.12502
lthumb 5.63313 26.1404
rfemur -44.6775 -8.67666 30.4243
rtibia 60.1345
rfoot -27.9826 -0.648492
rtoes 3.81414
lfemur 1.10369 -7.86233 -24.5516
ltibia 57.5085
lfoot -14.9991 -0.841301
ltoes -20.7626
409
root 44.0321 13.9559 1.95811 -362.958 -12.2015 -344.615
lowerback 10.9809 -0.931887 -10.4097
upperback 5.92044 -2.33575 -6.36739
thorax 0.243178 -1.32526 -0.596222
lowerneck -5.01249 -11.4575 -8.68224
upperneck 6.14352 -16.5729 19.1993
head 5.06458 -7.70101 6.1137
rclavicle 1.82882e-014 -1.51076e-014
rhumerus -73.0214 15.407 -100.178
rradius 93.4855
rwrist -41.6097
rhand -3.82302 4.48379
rfingers 7.12502
rthumb 21.9239 -24.294
lclavicle 1.82882e-014 -1.51076e-014
lhumerus -46.2048 -3.13644 74.903
lradius 120.472
lwrist 8.22173
lhand -20.4987 -4.74085
lfingers 7.12502
lthumb 5.85839 25.1582
rfemur -39.8938 -7.27517 30.0353
rtibia 55.6757
rfoot -26.509 -1.58128
rtoes 6.60514
lfemur 2.6745 -7.67492 -23.9469
ltibia 59.1832
lfoot -13.7593 0.217033
ltoes -19.9251
410
root 43.9142 14.0253 2.41375 -365 -13.8285 -344.626
lowerback 12.7096 -0.530656 -10.7376
upperback 6.10682 -2.08532 -5.76587
thorax -0.476221 -1.1964 0.226933
lowerneck -4.75383 -11.609 -8.91469
upperneck 5.80082 -16.6422 18.5985
head 4.88746 -7.79014 5.97217
rclavicle 4.1546e-014 3.06128e-014
rhumerus -72.8142 15.8582 -99.5062
rradius 92.7107
rwrist -43.3485
rhand -0.869636 1.73665
rfingers 7.12502
rthumb 24.7572 -26.6812
lclavicle 4.1546e-014 3.06128e-014
lhumerus -47.9303 -3.33153 76.7271
lradius 120.133
lwrist 8.51103
lhand -20.3102 -5.08104
lfingers 7.12502
lthumb 6.0403 24.8129
rfemur -34.515 -5.65696 29.9829
rtibia 51.7536
rfoot -25.2304 -2.97574
rtoes 9.2979
lfemur 3.88548 -7.4547 -23.0066
ltibia 61.3645
lfoot -12.8317 2.3911
ltoes -19.2498
411
root 43.7996 14.0648 2.85009 -366.884 -15.5821 -344.993
lowerback 14.5274 -0.14515 -10.6469
upperback 6.27982 -1.81772 -5.06806
thorax -1.27325 -1.04695 0.912025
lowerneck -4.44814 -11.7319 -9.06452
upperneck 5.39558 -16.6642 17.8926
head 4.66055 -7.86054 5.79807
rclavicle 6.51517e-014 6.20208e-014
rhumerus -72.0125 16.6463 -98.9094
rradius 91.5902
rwrist -44.3703
rhand 1.91924 -0.844889
rfingers 7.12502
rthumb 27.4273 -28.8683
lclavicle 6.51517e-014 6.20208e-014
lhumerus -49.73 -2.91071 78.2607
lradius 118.606
lwrist 9.15178
lhand -20.2855 -4.69544
lfingers 7.12502
lthumb 6.06423 25.1978
rfemur -29.2137 -3.87304 30.5134
rtibia 48.4944
rfoot -24.3881 -4.68427
rtoes 11.3777
lfemur 4.2275 -7.38534 -21.6401
ltibia 64.1297
lfoot -12.0242 5.12697
ltoes -18.3227
412
root 43.6895 14.0733 3.26635 -368.312 -17.5517 -345.696
lowerback 16.1168 0.198565 -10.1994
upperback 6.39487 -1.50683 -4.29372
thorax -2.02203 -0.871577 1.46106
lowerneck -4.14714 -11.8177 -9.11172
upperneck 5.0041 -16.6451 17.1223
head 4.41951 -7.90686 5.59698
rclavicle -1.3977e-017 5.55044e-015
rhumerus -70.6586 17.756 -98.3998
rradius 90.1711
rwrist -44.6955
rhand 4.44896 -3.09388
rfingers 7.12502
rthumb 29.8442 -30.7092
lclavicle -1.3977e-017 5.55044e-015
lhumerus -51.4997 -1.96092 79.3798
lradius 115.884
lwrist 9.93909
lhand -20.3306 -3.55049
lfingers 7.12502
lthumb 6.02063 26.344
rfemur -24.469 -1.89431 31.6548
rtibia 45.9514
rfoot -23.9424 -6.46406
rtoes 12.1689
lfemur 3.40725 -7.46728 -19.9012
ltibia 67.3346
lfoot -11.3442 7.67979
ltoes -17.0706
413
root 43.5843 14.0527 3.66561 -369.065 -19.7314 -346.497
lowerback 17.0945 0.486761 -9.58278
upperback 6.43041 -1.14192 -3.56117
thorax -2.54096 -0.67514 1.84485
lowerneck -3.90271 -11.8755 -9.02803
upperneck 4.67596 -16.6108 16.3558
head 4.19596 -7.93524 5.37842
rclavicle -3.18055e-014 -2.09718e-014
rhumerus -68.8786 19.0258 -97.9286
rradius 88.701
rwrist -44.6817
rhand 6.92472 -5.23169
rfingers 7.12502
rthumb 32.204 -32.3965
lclavicle -3.18055e-014 -2.09718e-014
lhumerus -53.1454 -0.752082 80.0391
lradius 112.054
lwrist 10.636
lhand -20.6753 -1.91471
lfingers 7.12502
lthumb 5.68785 27.989
rfemur -20.7151 0.0373901 33.0961
rtibia 44.1797
rfoot -23.7245 -7.95197
rtoes 11.5629
lfemur 1.2244 -7.68333 -18.1062
ltibia 70.6919
lfoot -10.8623 9.54594
ltoes -15.8062
414
root 43.474 14.026 4.04981 -369.384 -22.056 -347.095
lowerback 17.5769 0.785316 -9.08083
upperback 6.43476 -0.712901 -2.98834
thorax -2.8372 -0.455969 2.09761
lowerneck -3.72776 -11.9328 -8.80021
upperneck 4.41736 -16.6042 15.6646
head 4.00479 -7.96517 5.15577
rclavicle 9.93923e-017 1.19271e-014
rhumerus -66.8312 20.3018 -97.4603
rradius 87.4814
rwrist -44.73
rhand 9.33569 -7.52279
rfingers 7.12502
rthumb 34.496 -34.1951
lclavicle 9.93923e-017 1.19271e-014
lhumerus -54.654 0.376694 80.2633
lradius 107.466
lwrist 11.3074
lhand -21.2998 -0.134641
lfingers 7.12502
lthumb 5.08483 29.7844
rfemur -17.6959 1.90839 34.3933
rtibia 43.0314
rfoot -23.7836 -8.89049
rtoes 10.5267
lfemur -1.94581 -7.96655 -16.6315
ltibia 73.7155
lfoot -10.7784 10.6955
ltoes -14.6414
415
root 43.3519 14.0073 4.42088 -369.423 -24.5598 -347.471
lowerback 17.6783 1.12398 -8.75117
upperback 6.42415 -0.217589 -2.57021
thorax -2.95444 -0.211385 2.26198
lowerneck -3.62722 -11.9822 -8.52111
upperneck 4.23044 -16.6135 15.1177
head 3.85932 -7.99153 4.96306
rclavicle 1.61016e-014 -6.36111e-015
rhumerus -64.7571 21.4646 -96.9652
rradius 86.7982
rwrist -44.7574
rhand 11.8044 -10.0323
rfingers 7.12502
rthumb 36.8357 -36.139
lclavicle 1.61016e-014 -6.36111e-015
lhumerus -56.148 1.26872 80.1879
lradius 102.667
lwrist 11.9561
lhand -22.121 1.52038
lfingers 7.12502
lthumb 4.2919 31.4569
rfemur -15.157 3.66239 35.4705
rtibia 42.3301
rfoot -23.9088 -9.1716
rtoes 9.53574
lfemur -5.736 -8.13447 -15.4492
ltibia 76.015
lfoot -11.1448 11.3502
ltoes -13.8421
416
root 43.2119 14.004 4.78345 -369.38 -27.2513 -347.64
lowerback 17.5383 1.50583 -8.64225
upperback 6.4241 0.320191 -2.2642
thorax -2.93713 0.0475262 2.42054
lowerneck -3.59255 -12.0069 -8.24788
upperneck 4.09578 -16.6042 14.673
head 3.74854 -8.00116 4.79937
rclavicle -6.26172e-015 -1.23246e-014
rhumerus -62.9227 22.5795 -96.4595
rradius 86.8004
rwrist -44.5764
rhand 14.2008 -12.5698
rfingers 7.12502
rthumb 39.0988 -38.0614
lclavicle -6.26172e-015 -1.23246e-014
lhumerus -57.7861 1.90674 79.9816
lradius 98.2835
lwrist 12.6385
lhand -22.9891 2.60957
lfingers 7.12502
lthumb 3.45364 32.5613
rfemur -12.7286 5.30528 36.3267
rtibia 41.766
rfoot -24.0398 -8.98092
rtoes 8.85201
lfemur -9.66882 -8.03877 -14.5122
ltibia 77.2937
lfoot -12.106 11.5811
ltoes -12.9121
